<?xml version="1.0" standalone="no"?>
<!DOCTYPE svg PUBLIC "-//W3C//DTD SVG 20010904//EN"
 "http://www.w3.org/TR/2001/REC-SVG-20010904/DTD/svg10.dtd">
<svg version="1.0" xmlns="http://www.w3.org/2000/svg"
 width="900.000000pt" height="900.000000pt" viewBox="0 0 900.000000 900.000000"
 preserveAspectRatio="xMidYMid meet">
<metadata>
Created by potrace 1.11, written by Peter Selinger 2001-2013
</metadata>
<g transform="translate(0.000000,900.000000) scale(0.100000,-0.100000)"
fill="#000000" stroke="none">
<path d="M1301 8479 c-203 -43 -369 -134 -516 -284 -121 -122 -205 -270 -254
-444 l-26 -96 -2 -3130 c-2 -3002 -2 -3133 16 -3215 47 -216 134 -377 285
-525 133 -131 248 -193 486 -266 38 -11 565 -14 3180 -16 3006 -2 3139 -1
3220 16 47 10 99 24 115 30 17 7 31 12 32 12 26 -5 203 91 273 147 198 159
318 353 369 597 l21 100 -3 3120 c-1 1716 -5 3131 -9 3145 -4 14 -10 39 -14
55 -9 48 -44 145 -75 210 -112 237 -331 428 -588 515 -32 10 -71 22 -87 24
-16 3 -51 10 -79 15 -32 7 -1163 10 -3150 10 -3049 0 -3102 -1 -3194 -20z"/>
</g>
</svg>
